<svg width="257" height="34" viewBox="0 0 257 34" fill="none" xmlns="http://www.w3.org/2000/svg">
<g id="Ensuesoft Logo">
<g id="Ensuesoft Copy">
<path id="Path" d="M99.3284 19.554V24.0712H109.528V29.6812H93.5V4.18115H109.346V9.79115H99.3284V14.0169H108.435V19.554H99.3284Z" fill="#0C091D"/>
<path id="Path_2" d="M123.731 10.9569C125.698 10.9569 127.313 11.6248 128.576 12.9605C129.888 14.3205 130.543 16.1662 130.543 18.4976V29.6812H125.079V19.2991C125.079 18.2548 124.788 17.4412 124.205 16.8583C123.622 16.2755 122.857 15.9841 121.91 15.9841C120.841 15.9841 120.01 16.3058 119.415 16.9494C118.82 17.593 118.522 18.5219 118.522 19.7362V29.6812H113.058V11.4669H118.522V13.1791C119.615 11.6976 121.351 10.9569 123.731 10.9569Z" fill="#0C091D"/>
<path id="Path_3" d="M139.902 16.7855C139.902 17.1012 140.156 17.3744 140.666 17.6051C141.176 17.8358 141.978 18.0969 143.071 18.3883C146.956 19.2383 148.887 21.1812 148.863 24.2169C148.863 26.1841 148.134 27.6776 146.677 28.6976C145.196 29.6933 143.399 30.1912 141.286 30.1912C137.449 30.1912 134.838 28.7462 133.454 25.8562L138.189 23.1605C138.675 24.5933 139.707 25.3098 141.286 25.3098C142.597 25.3098 143.253 24.9333 143.253 24.1805C143.253 23.6462 142.196 23.1119 140.084 22.5776C139.307 22.3591 138.639 22.1344 138.08 21.9037C137.522 21.673 136.921 21.3451 136.277 20.9201C135.633 20.4951 135.142 19.9426 134.802 19.2626C134.462 18.5826 134.292 17.8055 134.292 16.9312C134.292 15.0612 134.972 13.5919 136.332 12.5233C137.692 11.4791 139.392 10.9569 141.431 10.9569C144.613 10.9569 146.981 12.2562 148.535 14.8548L143.872 17.3683C143.289 16.2998 142.476 15.7655 141.431 15.7655C140.411 15.7655 139.902 16.1055 139.902 16.7855Z" fill="#0C091D"/>
<path id="Path_4" d="M163.794 21.4119V11.4669H169.259V29.6812H163.794V27.9691C162.702 29.4505 160.965 30.1912 158.585 30.1912C156.643 30.1912 155.015 29.5233 153.704 28.1876C152.417 26.8276 151.773 24.9819 151.773 22.6505V11.4669H157.238V21.8491C157.238 22.8933 157.529 23.7069 158.112 24.2898C158.695 24.8726 159.46 25.1641 160.407 25.1641C161.475 25.1641 162.307 24.8423 162.902 24.1987C163.497 23.5551 163.794 22.6262 163.794 21.4119Z" fill="#0C091D"/>
<path id="Shape" fill-rule="evenodd" clip-rule="evenodd" d="M178.581 22.7598H191.512C191.658 22.0798 191.731 21.3512 191.731 20.5741C191.731 17.8055 190.844 15.5226 189.072 13.7255C187.323 11.8798 185.125 10.9569 182.478 10.9569C179.637 10.9569 177.306 11.8798 175.484 13.7255C173.687 15.5712 172.789 17.8541 172.789 20.5741C172.789 23.3426 173.699 25.6376 175.521 27.4591C177.391 29.2805 179.843 30.1912 182.879 30.1912C186.4 30.1912 189.047 28.9405 190.82 26.4391L186.449 23.9255C185.599 24.8483 184.433 25.3098 182.952 25.3098C180.645 25.3098 179.188 24.4598 178.581 22.7598ZM186.303 18.6798H178.471C179.006 16.7612 180.329 15.8019 182.442 15.8019C184.482 15.8019 185.769 16.7612 186.303 18.6798Z" fill="#0C091D"/>
<path id="Path_5" d="M199.705 16.7855C199.705 17.1012 199.96 17.3744 200.47 17.6051C200.98 17.8358 201.781 18.0969 202.874 18.3883C206.759 19.2383 208.69 21.1812 208.666 24.2169C208.666 26.1841 207.937 27.6776 206.48 28.6976C204.999 29.6933 203.202 30.1912 201.089 30.1912C197.252 30.1912 194.641 28.7462 193.257 25.8562L197.993 23.1605C198.478 24.5933 199.51 25.3098 201.089 25.3098C202.4 25.3098 203.056 24.9333 203.056 24.1805C203.056 23.6462 202 23.1119 199.887 22.5776C199.11 22.3591 198.442 22.1344 197.883 21.9037C197.325 21.673 196.724 21.3451 196.08 20.9201C195.437 20.4951 194.945 19.9426 194.605 19.2626C194.265 18.5826 194.095 17.8055 194.095 16.9312C194.095 15.0612 194.775 13.5919 196.135 12.5233C197.495 11.4791 199.195 10.9569 201.235 10.9569C204.416 10.9569 206.784 12.2562 208.338 14.8548L203.675 17.3683C203.092 16.2998 202.279 15.7655 201.235 15.7655C200.215 15.7655 199.705 16.1055 199.705 16.7855Z" fill="#FF375F"/>
<path id="Shape_2" fill-rule="evenodd" clip-rule="evenodd" d="M220.393 30.1911C223.112 30.1911 225.395 29.2682 227.241 27.4225C229.111 25.5525 230.046 23.2696 230.046 20.5739C230.046 17.9025 229.111 15.6318 227.241 13.7618C225.371 11.8918 223.088 10.9568 220.393 10.9568C217.697 10.9568 215.414 11.8918 213.544 13.7618C211.674 15.6318 210.739 17.9025 210.739 20.5739C210.739 23.2696 211.674 25.5525 213.544 27.4225C215.39 29.2682 217.673 30.1911 220.393 30.1911ZM217.405 23.6704C216.604 22.8689 216.203 21.8368 216.203 20.5739C216.203 19.3111 216.604 18.2789 217.405 17.4775C218.207 16.6761 219.203 16.2754 220.393 16.2754C221.582 16.2754 222.578 16.6761 223.38 17.4775C224.181 18.2789 224.582 19.3111 224.582 20.5739C224.582 21.8368 224.181 22.8689 223.38 23.6704C222.578 24.4718 221.582 24.8725 220.393 24.8725C219.203 24.8725 218.207 24.4718 217.405 23.6704Z" fill="#FF375F"/>
<path id="Path_6" d="M243.046 3.67116V8.91687C240.788 8.72258 239.659 9.57258 239.659 11.4669H243.046V16.7126H239.659V29.6812H234.195V16.7126H231.754V11.4669H234.195C234.195 8.81973 234.947 6.81616 236.453 5.45616C237.959 4.09616 240.156 3.50116 243.046 3.67116Z" fill="#FF375F"/>
<path id="Path_7" d="M256.704 11.4669V16.7127H252.952V23.1605C252.952 23.8648 253.231 24.3202 253.789 24.5266C254.348 24.733 255.319 24.7998 256.704 24.7269V29.6812C253.255 30.0455 250.851 29.7177 249.491 28.6977C248.155 27.6534 247.487 25.8077 247.487 23.1605V16.7127H244.573V11.4669H247.487V8.00623L252.952 6.36694V11.4669H256.704Z" fill="#FF375F"/>
</g>
<g id="Icon">
<path id="Path_8" d="M49.1964 0.0232717L37.2348 17.0116L30.8118 26.1342L30.1369 27.0883C27.6701 30.3696 24.0164 32.6968 19.8275 33.4647C18.8268 33.6509 17.8029 33.744 16.7556 33.744C15.243 33.744 13.7536 33.5346 12.3573 33.1622C10.7748 32.7201 9.26215 32.0684 7.91239 31.2074C3.16496 28.2519 0 22.9925 0 16.9884C0 7.72621 7.4935 0.232717 16.7556 0.232717C20.6886 0.232717 24.2957 1.58248 27.1581 3.86311C28.4381 4.86379 29.5551 6.05065 30.486 7.40041L27.5537 11.5661L23.7139 17.0116H17.896L24.4586 7.67967C22.3641 5.93429 19.6646 4.91034 16.7324 4.91034C10.0534 4.91034 4.63107 10.3326 4.63107 17.0116C4.63107 21.4333 7.00479 25.3196 10.5654 27.4141C11.9617 28.2519 13.5674 28.8104 15.2663 29.0198C15.755 29.0897 16.2437 29.1129 16.7324 29.1129C20.2231 29.1129 23.3881 27.6235 25.5756 25.2498C26.3203 24.4353 26.9719 23.5277 27.4839 22.527L31.3703 16.9884L33.2553 14.3121L43.332 0H49.1964V0.0232717Z" fill="#3318F3"/>
<path id="Path_9" d="M81.2416 17.0116C81.2416 26.2737 73.7481 33.7672 64.486 33.7672C58.7611 33.7672 53.6879 30.8815 50.6626 26.4832L53.5715 22.2477C55.5263 26.297 59.6687 29.0896 64.4627 29.0896C71.1417 29.0896 76.564 23.6673 76.564 16.9883C76.564 10.3093 71.1417 4.88701 64.4627 4.88701C60.9719 4.88701 57.807 6.3764 55.6194 8.75012C54.8747 9.56463 54.2231 10.4722 53.7111 11.4729L47.9398 19.6878L37.8631 34H32.0452L50.4066 7.91234V7.88907L51.0814 6.91165V6.88838C53.5482 3.63034 57.2019 1.30317 61.3908 0.511927C62.3915 0.325753 63.4155 0.232666 64.4627 0.232666C73.7481 0.255938 81.2416 7.74944 81.2416 17.0116Z" fill="#FF375F"/>
</g>
<g id="Icon_2">
<path id="Path_10" d="M49.1964 0.0232717L37.2348 17.0116L30.8118 26.1342L30.1369 27.0883C27.6701 30.3696 24.0164 32.6968 19.8275 33.4647C18.8268 33.6509 17.8029 33.744 16.7556 33.744C15.243 33.744 13.7536 33.5346 12.3573 33.1622C10.7748 32.7201 9.26215 32.0684 7.91239 31.2074C3.16496 28.2519 0 22.9925 0 16.9884C0 7.72621 7.4935 0.232717 16.7556 0.232717C20.6886 0.232717 24.2957 1.58248 27.1581 3.86311C28.4381 4.86379 29.5551 6.05065 30.486 7.40041L27.5537 11.5661L23.7139 17.0116H17.896L24.4586 7.67967C22.3641 5.93429 19.6646 4.91034 16.7324 4.91034C10.0534 4.91034 4.63107 10.3326 4.63107 17.0116C4.63107 21.4333 7.00479 25.3196 10.5654 27.4141C11.9617 28.2519 13.5674 28.8104 15.2663 29.0198C15.755 29.0897 16.2437 29.1129 16.7324 29.1129C20.2231 29.1129 23.3881 27.6235 25.5756 25.2498C26.3203 24.4353 26.9719 23.5277 27.4839 22.527L31.3703 16.9884L33.2553 14.3121L43.332 0H49.1964V0.0232717Z" fill="url(#paint0_linear_12_26)"/>
<path id="Path_11" d="M81.2416 17.0116C81.2416 26.2737 73.7481 33.7672 64.486 33.7672C58.7611 33.7672 53.6879 30.8815 50.6626 26.4832L53.5715 22.2477C55.5263 26.297 59.6687 29.0896 64.4627 29.0896C71.1417 29.0896 76.564 23.6673 76.564 16.9883C76.564 10.3093 71.1417 4.88701 64.4627 4.88701C60.9719 4.88701 57.807 6.3764 55.6194 8.75012C54.8747 9.56463 54.2231 10.4722 53.7111 11.4729L47.9398 19.6878L37.8631 34H32.0452L50.4066 7.91234V7.88907L51.0814 6.91165V6.88838C53.5482 3.63034 57.2019 1.30317 61.3908 0.511927C62.3915 0.325753 63.4155 0.232666 64.4627 0.232666C73.7481 0.255938 81.2416 7.74944 81.2416 17.0116Z" fill="url(#paint1_linear_12_26)"/>
</g>
</g>
<defs>
<linearGradient id="paint0_linear_12_26" x1="58.9162" y1="26.5114" x2="41.7153" y2="-16.6317" gradientUnits="userSpaceOnUse">
<stop stop-color="#3318F3"/>
<stop offset="0.519048" stop-color="#FF375F"/>
<stop offset="1" stop-color="#FFC929"/>
</linearGradient>
<linearGradient id="paint1_linear_12_26" x1="90.9614" y1="26.7624" x2="73.7399" y2="-16.4023" gradientUnits="userSpaceOnUse">
<stop stop-color="#3318F3"/>
<stop offset="0.516012" stop-color="#FF375F"/>
<stop offset="1" stop-color="#FFC929"/>
</linearGradient>
</defs>
</svg>
