<?xml version="1.0" standalone="no"?><svg xmlns="http://www.w3.org/2000/svg" viewBox="0 0 1440 320"><path fill="#FFFE6D" fill-opacity="1" d="M0,256L10.4,261.3C20.9,267,42,277,63,245.3C83.5,213,104,139,125,96C146.1,53,167,43,188,58.7C208.7,75,230,117,250,160C271.3,203,292,245,313,224C333.9,203,355,117,376,117.3C396.5,117,417,203,438,234.7C459.1,267,480,245,501,213.3C521.7,181,543,139,563,133.3C584.3,128,605,160,626,160C647,160,668,128,689,112C709.6,96,730,96,751,106.7C772.2,117,793,139,814,144C834.8,149,856,139,877,122.7C897.4,107,918,85,939,80C960,75,981,85,1002,101.3C1022.6,117,1043,139,1064,154.7C1085.2,171,1106,181,1127,176C1147.8,171,1169,149,1190,160C1210.4,171,1231,213,1252,197.3C1273,181,1294,107,1315,80C1335.7,53,1357,75,1377,101.3C1398.3,128,1419,160,1430,176L1440,192L1440,0L1429.6,0C1419.1,0,1398,0,1377,0C1356.5,0,1336,0,1315,0C1293.9,0,1273,0,1252,0C1231.3,0,1210,0,1190,0C1168.7,0,1148,0,1127,0C1106.1,0,1085,0,1064,0C1043.5,0,1023,0,1002,0C980.9,0,960,0,939,0C918.3,0,897,0,877,0C855.7,0,835,0,814,0C793,0,772,0,751,0C730.4,0,710,0,689,0C667.8,0,647,0,626,0C605.2,0,584,0,563,0C542.6,0,522,0,501,0C480,0,459,0,438,0C417.4,0,397,0,376,0C354.8,0,334,0,313,0C292.2,0,271,0,250,0C229.6,0,209,0,188,0C167,0,146,0,125,0C104.3,0,83,0,63,0C41.7,0,21,0,10,0L0,0Z"></path></svg>